<svg version="1.1" id="Layer_1" xmlns="http://www.w3.org/2000/svg" xmlns:xlink="http://www.w3.org/1999/xlink" viewBox="0 0 512 512" xml:space="preserve" fill="#000000"><g id="SVGRepo_bgCarrier" stroke-width="0"></g><g id="SVGRepo_iconCarrier"> <g> <rect x="119.326" y="50.99" style="fill:#EB6836;" width="52.567" height="25.232"></rect> <rect x="340.107" y="50.99" style="fill:#EB6836;" width="52.567" height="25.232"></rect> <rect x="28.912" y="147.713" style="fill:#EB6836;" width="454.177" height="355.351"></rect> </g> <rect x="28.912" y="147.713" style="fill:#C74B38;" width="454.177" height="58.875"></rect> <path style="fill:#E5E5E5;" d="M225.185,398.19l62.378-62.378c17.469,9.225,39.602,6.489,54.302-8.212 c14.425-14.425,17.319-36.002,8.707-53.311l-35.469,35.469l-20.815-20.815l35.469-35.469c-17.309-8.611-38.886-5.718-53.311,8.707 c-14.701,14.701-17.436,36.833-8.212,54.302l-62.378,62.378c-17.469-9.225-39.602-6.489-54.303,8.212 c-14.425,14.425-17.319,36.002-8.707,53.311l35.469-35.469l20.815,20.815L163.662,461.2c17.309,8.611,38.886,5.718,53.311-8.707 C231.674,437.792,234.411,415.659,225.185,398.19z"></path> <rect x="233.329" y="326.065" transform="matrix(-0.7071 -0.7071 0.7071 -0.7071 169.1833 784.158)" style="fill:#CCCCCC;" width="27.334" height="61.95"></rect> <polygon style="fill:#E5E5E5;" points="225.304,286.682 198.542,313.445 158.398,267.353 179.214,246.538 "></polygon> <path style="fill:#F7D04A;" d="M362.835,443.54l-10.408,10.408c-6.159,6.159-16.143,6.159-22.302,0l-52.782-52.782l-5.947-17.842 l20.815-20.815l17.842,5.947l52.782,52.782C368.993,427.397,368.993,437.382,362.835,443.54z"></path> <path style="fill:#F3B41B;" d="M276.721,377.999l-5.325,5.325l5.947,17.842l52.782,52.782c6.159,6.159,16.143,6.159,22.302,0 l0.121-0.121L276.721,377.999z"></path> <polygon style="fill:#EF9D3C;" points="504.115,179.253 7.885,179.253 7.885,135.097 75.17,76.222 434.727,76.222 504.115,135.097 "></polygon> <polygon style="fill:#FFB973;" points="434.727,76.222 401.084,76.222 470.472,135.097 470.472,179.253 504.115,179.253 504.115,135.097 "></polygon> <polygon style="fill:#E2771E;" points="110.916,76.222 75.17,76.222 7.885,135.097 7.885,179.253 43.63,179.253 43.63,135.097 "></polygon> <g> <rect x="121.429" y="137.199" style="fill:#CCCCCC;" width="50.464" height="77.799"></rect> <rect x="340.107" y="137.199" style="fill:#CCCCCC;" width="50.464" height="77.799"></rect> </g> <g> <rect x="121.429" y="137.199" style="fill:#F2F2F2;" width="50.464" height="24.882"></rect> <rect x="340.107" y="137.199" style="fill:#F2F2F2;" width="50.464" height="24.882"></rect> </g> <path d="M204.16,369.406c-19.947-7.933-42.695-3.395-58.181,12.09c-16.471,16.47-20.566,41.547-10.191,62.4 c2.358,4.739,8.885,5.814,12.635,2.064l29.894-29.895l9.664,9.664l-29.894,29.894c-3.75,3.751-2.678,10.277,2.063,12.636 c7.681,3.822,15.933,5.679,24.119,5.679c14.037-0.001,27.876-5.467,38.28-15.871c15.487-15.486,20.024-38.234,12.09-58.182 l31.491-31.491l4.521,4.521l-4.832,4.832c-2.112,2.112-2.849,5.236-1.905,8.07l5.947,17.842c0.387,1.161,1.04,2.215,1.905,3.083 l52.782,52.782c4.612,4.611,10.669,6.917,16.727,6.917c6.058,0,12.116-2.306,16.728-6.918l10.407-10.408 c4.467-4.467,6.928-10.407,6.928-16.726s-2.46-12.258-6.928-16.727l-52.782-52.781c-0.865-0.865-1.921-1.517-3.081-1.905 l-17.842-5.947c-2.834-0.944-5.958-0.207-8.069,1.905l-4.832,4.832l-4.521-4.521l11.978-11.978 c19.947,7.93,42.695,3.396,58.181-12.09c16.47-16.471,20.566-41.548,10.191-62.4c-2.358-4.739-8.885-5.814-12.635-2.064 l-29.894,29.895l-9.665-9.664l29.895-29.895c3.75-3.751,2.677-10.277-2.064-12.636c-20.852-10.374-45.93-6.278-62.399,10.191 c-15.487,15.486-20.025,38.234-12.09,58.183l-11.978,11.978l-25.215-25.215l9.293-9.293c3.182-3.183,2.998-8.565-0.396-11.522 l-46.091-40.144c-3.127-2.725-7.825-2.561-10.754,0.37l-20.815,20.815c-2.931,2.931-3.092,7.63-0.371,10.754l40.144,46.092 c2.956,3.395,8.337,3.58,11.522,0.397l6.319-6.319l25.215,25.214L204.16,369.406z M294.34,371.531l11.453,3.818l51.465,51.464 c3.038,3.038,3.04,8.112,0,11.15v0.001l-10.407,10.407c-3.074,3.076-8.077,3.075-11.151,0l-51.466-51.466l-3.817-11.453 L294.34,371.531z M169.178,267.724l10.407-10.407l34.17,29.762l-14.815,14.816L169.178,267.724z M219.61,392.614 c-2.445,2.445-3.012,6.2-1.397,9.258c7.903,14.964,5.164,33.067-6.815,45.046c-8.845,8.847-21.192,12.652-33.084,10.783 l26.393-26.393c3.079-3.08,3.079-8.072,0-11.152l-20.815-20.815c-3.079-3.078-8.072-3.078-11.15,0l-26.394,26.394 c-1.872-11.894,1.937-24.24,10.782-33.084c11.98-11.979,30.081-14.717,45.045-6.815c3.059,1.615,6.812,1.048,9.257-1.396 l35.37-35.37l8.177,8.177L219.61,392.614z M273.811,322.06c2.445-2.445,3.012-6.2,1.397-9.258 c-7.903-14.965-5.164-33.068,6.815-45.046c8.845-8.845,21.191-12.656,33.084-10.783l-26.394,26.393 c-3.036,3.037-3.036,8.115,0,11.152l20.815,20.815c3.079,3.078,8.072,3.078,11.15,0l26.394-26.394 c1.872,11.894-1.938,24.24-10.783,33.084c-11.979,11.98-30.08,14.718-45.046,6.815c-3.057-1.615-6.812-1.048-9.257,1.396 l-15.857,15.857l-8.177-8.177L273.811,322.06z"></path> <path d="M509.217,129.084l-69.388-58.875c-1.426-1.209-3.234-1.872-5.102-1.872h-34.168V50.99c0-4.356-3.53-7.885-7.885-7.885 h-19.45V8.936c0-4.356-3.53-7.885-7.885-7.885H146.661c-4.355,0-7.885,3.529-7.885,7.885v34.168h-19.45 c-4.355,0-7.885,3.529-7.885,7.885v17.347H75.17c-1.91,0-3.755,0.693-5.193,1.95L2.692,129.162C0.982,130.66,0,132.822,0,135.097 v44.156c0,4.356,3.53,7.885,7.885,7.885h13.142v29.963c0,4.356,3.53,7.885,7.885,7.885s7.885-3.529,7.885-7.885v-29.963h76.747 v27.86c0,4.356,3.53,7.885,7.885,7.885h50.464c4.355,0,7.885-3.529,7.885-7.885v-27.86h152.444v27.86 c0,4.356,3.53,7.885,7.885,7.885h50.464c4.355,0,7.885-3.529,7.885-7.885v-27.86h76.747v308.041H36.797V259.154 c0-4.356-3.53-7.885-7.885-7.885s-7.885,3.529-7.885,7.885v243.91c0,4.356,3.53,7.885,7.885,7.885h454.177 c4.355,0,7.885-3.529,7.885-7.885V187.138h13.142c4.355,0,7.885-3.529,7.885-7.885v-44.156 C512,132.781,510.982,130.582,509.217,129.084z M384.789,68.337h-36.797v-9.462h36.797V68.337z M127.212,58.875h36.797v9.462 h-36.797V58.875z M164.008,207.113h-34.694v-62.029h34.694V207.113z M382.686,207.113h-34.694v-62.029h34.694V207.113z M496.23,171.368h-97.774v-34.168c0-4.356-3.53-7.885-7.885-7.885h-50.464c-4.355,0-7.885,3.529-7.885,7.885v34.168H179.778v-34.168 c0-4.356-3.53-7.885-7.885-7.885h-50.464c-4.355,0-7.885,3.529-7.885,7.885v34.168H15.77v-32.693l62.363-54.567h186.278 c4.355,0,7.885-3.529,7.885-7.885c0-4.356-3.53-7.885-7.885-7.885h-84.632V50.99c0-4.356-3.53-7.885-7.885-7.885h-17.347V16.821 h202.908v26.283h-17.347c-4.355,0-7.885,3.529-7.885,7.885v17.347h-17.347c-4.355,0-7.885,3.529-7.885,7.885 c0,4.356,3.53,7.885,7.885,7.885h116.958l64.397,54.641V171.368z"></path> </g></svg>